<?xml version="1.0" encoding="utf-8"?>
<svg width="512px" height="512px" viewBox="0 0 512 512" version="1.1" xmlns:xlink="http://www.w3.org/1999/xlink" xmlns="http://www.w3.org/2000/svg">
  <defs>
    <filter filterUnits="userSpaceOnUse" color-interpolation-filters="sRGB" id="filter_1">
      <feFlood flood-opacity="0" result="BackgroundImageFix" />
      <feColorMatrix in="SourceAlpha" type="matrix" values="0 0 0 0 0 0 0 0 0 0 0 0 0 0 0 0 0 0 127 0" />
      <feOffset dx="10" dy="10" />
      <feGaussianBlur stdDeviation="10" />
      <feColorMatrix type="matrix" values="0 0 0 0 0.39215687 0 0 0 0 0.39215687 0 0 0 0 0.39215687 0 0 0 0.49803922 0" />
      <feBlend mode="normal" in2="BackgroundImageFix" result="effect0_dropShadow" />
      <feBlend mode="normal" in="SourceGraphic" in2="effect0_dropShadow" result="shape" />
    </filter>
    <rect width="512" height="512" id="artboard_1" />
    <clipPath id="clip_1">
      <use xlink:href="#artboard_1" clip-rule="evenodd" />
    </clipPath>
  </defs>
  <g id="Artboard-Copy" clip-path="url(#clip_1)">
    <g filter="url(#filter_1)">
      <g id="Skydle-SMP-Season-3-Logo" transform="translate(30 56.37787)">
        <path d="M0 0L56.625 0L56.625 114.666L0 114.666L0 0Z" id="Rectangle" fill="#FF007F" fill-rule="evenodd" stroke="none" />
        <path d="M113.25 114.666L169.875 114.666L169.875 229.331L113.25 229.331L113.25 114.666Z" id="Rectangle-Copy-5" fill="#FF007F" fill-rule="evenodd" stroke="none" />
        <path d="M396.375 6.10352e-05L453 6.10352e-05L453 114.666L396.375 114.666L396.375 6.10352e-05Z" id="Rectangle-Copy" fill="#FF007F" fill-rule="evenodd" stroke="none" />
        <path d="M339.75 58.0406L396.375 58.0406L396.375 172.706L339.75 172.706L339.75 58.0406Z" id="Rectangle-Copy-2" fill="#FF007F" fill-rule="evenodd" stroke="none" />
        <path d="M283.125 114.666L339.75 114.666L339.75 229.331L283.125 229.331L283.125 114.666Z" id="Rectangle-Copy-3" fill="#FF007F" fill-rule="evenodd" stroke="none" />
        <path d="M226.5 229.331L283.125 229.331L283.125 343.997L226.5 343.997L226.5 229.331Z" id="Rectangle-Copy-6" fill="#FF007F" fill-rule="evenodd" stroke="none" />
        <path d="M339.75 229.331L396.375 229.331L396.375 343.997L339.75 343.997L339.75 229.331Z" id="Rectangle-Copy-8" fill="#FF007F" fill-rule="evenodd" stroke="none" />
        <path d="M169.875 229.331L226.5 229.331L226.5 343.997L169.875 343.997L169.875 229.331Z" id="Rectangle-Copy-7" fill="#FF007F" fill-rule="evenodd" stroke="none" />
        <path d="M56.624 400.615L56.624 343.991L169.872 343.991L169.872 400.615L56.624 400.615Z" id="Rectangle-Copy-10" fill="#FF007F" fill-rule="evenodd" stroke="none" />
        <path d="M113.248 285.951L113.248 229.327L169.872 229.327L169.872 285.951L113.248 285.951Z" id="Rectangle-Copy-12" fill="#FF007F" fill-rule="evenodd" stroke="none" />
        <path d="M283.12 285.951L283.12 229.327L339.744 229.327L339.744 285.951L283.12 285.951Z" id="Rectangle-Copy-13" fill="#FF007F" fill-rule="evenodd" stroke="none" />
        <path d="M283.12 400.615L283.12 343.991L396.368 343.991L396.368 400.615L283.12 400.615Z" id="Rectangle-Copy-11" fill="#FF007F" fill-rule="evenodd" stroke="none" />
        <path d="M56.625 229.331L113.25 229.331L113.25 343.997L56.625 343.997L56.625 229.331Z" id="Rectangle-Copy-9" fill="#FF007F" fill-rule="evenodd" stroke="none" />
        <path d="M56.625 56.625L113.25 56.625L113.25 171.291L56.625 171.291L56.625 56.625Z" id="Rectangle-Copy-4" fill="#FF007F" fill-rule="evenodd" stroke="none" />
      </g>
    </g>
  </g>
</svg>